:SAMPLES-PER-SECOND 30
:FULLY-SPECIFIED
:DEGREES
1595
root  10.2108 37.9023 9.38368 -169.425 82.9905 -173.405
RightUpLeg  -27.5327 -7.34293 1.82079
RightLeg  39.9382 -7.26836 -6.78201
RightFoot  -15.1917 -0.103405 0.0127232
RightToes  0.000481921 0.542163 -0.142578
Spine  32.6948 -1.93704 3.76068
Spine1  -6.05239 -1.78679 3.77125
HEad  -22.651 3.04536 -3.74117
LeftShoulder1  7.53567 -13.3639 -38.5033
LeftArm  7.99197 -4.74797 -39.8846
LeftForeArm  -176.153 -61.136 -163.32
LeftHand  -0.25398 0.0180481 5.50724
RightShoulder  4.85892 9.85274 30.4211
RightArm  3.85925 -0.888386 43.8108
RightForeArm  164.859 61.8786 161.009
RightHand  -1.41311 3.62421 -18.3706
LeftUpLeg  -29.2878 21.8037 -0.0377894
LeftLeg  40.9 7.98911 7.73526
LeftFoot  -11.4155 0.0662042 -1.90933
LeftToes  1.06245e-005 4.65868e-005 -8.65517e-006
1596
root  10.2042 37.6998 9.22744 -175.845 81.6212 -179.255
RightUpLeg  -27.6639 -5.14953 0.287257
RightLeg  42.0945 -9.3589 -9.23279
RightFoot  -15.1563 -0.0901122 0.359111
RightToes  0.000481921 0.542163 -0.142578
Spine  33.447 -2.52777 4.32869
Spine1  -6.32642 -2.169 3.3856
HEad  -21.2905 2.41966 -3.78233
LeftShoulder1  7.59858 -13.4399 -38.6664
LeftArm  8.79975 -4.9612 -40.24
LeftForeArm  -176.154 -61.2842 -163.221
LeftHand  -0.25398 0.0180481 5.50724
RightShoulder  4.78805 9.7435 30.1826
RightArm  3.25493 -1.10561 43.4426
RightForeArm  164.756 61.6982 161.135
RightHand  -1.43765 3.75987 -18.416
LeftUpLeg  -30.8103 21.5537 -0.739374
LeftLeg  44.2462 6.70912 7.34376
LeftFoot  -9.70223 0.105425 -3.1111
LeftToes  1.06245e-005 4.65868e-005 -8.65517e-006
1597
root  10.16 37.4584 9.04184 -178.81 80.1735 178.098
RightUpLeg  -28.2275 -6.76456 -0.928046
RightLeg  44.3144 -8.93184 -9.51864
RightFoot  -15.5945 -0.0225592 2.2293
RightToes  0.000481921 0.542163 -0.142578
Spine  34.015 -2.98028 4.95597
Spine1  -6.69802 -2.48813 3.45719
HEad  -20.0456 1.83217 -3.1205
LeftShoulder1  7.72167 -13.5859 -38.9884
LeftArm  9.89327 -4.90473 -41.037
LeftForeArm  -175.971 -61.5339 -163.068
LeftHand  -0.25398 0.0180481 5.50724
RightShoulder  4.68414 9.59629 29.7891
RightArm  2.67987 -1.09167 42.6722
RightForeArm  164.358 61.6447 161.136
RightHand  -1.44906 3.77986 -18.519
LeftUpLeg  -33.7344 21.58 -0.943546
LeftLeg  49.1411 4.15945 5.53749
LeftFoot  -5.93858 0.315649 -5.75519
LeftToes  1.06245e-005 4.65868e-005 -8.65517e-006
1598
root  10.1262 37.1796 8.84204 -178.02 79.3928 178.89
RightUpLeg  -29.0885 -9.79504 -1.00564
RightLeg  45.8574 -7.17171 -8.17323
RightFoot  -16.3826 0.00663572 2.69354
RightToes  0.000481921 0.542163 -0.142578
Spine  34.1678 -2.91824 5.55654
Spine1  -6.73524 -2.47589 4.25094
HEad  -19.5354 1.30781 -1.71539
LeftShoulder1  7.86449 -13.7772 -39.2993
LeftArm  11.1977 -4.47463 -42.2905
LeftForeArm  -175.439 -61.8053 -162.93
LeftHand  -0.25398 0.0180481 5.50724
RightShoulder  4.57139 9.41214 29.4197
RightArm  2.20114 -0.728039 41.6521
RightForeArm  163.748 61.8083 160.955
RightHand  -1.45627 3.74153 -18.6822
LeftUpLeg  -37.2321 21.4843 0.0992347
LeftLeg  54.4951 0.768298 1.62336
LeftFoot  -1.67877 0.8048 -9.38362
LeftToes  1.06245e-005 4.65868e-005 -8.65517e-006
1599
root  10.1243 36.9021 8.62998 -175.827 79.5671 -178.91
RightUpLeg  -29.9259 -10.8159 -0.78826
RightLeg  47.2799 -6.15894 -7.44785
RightFoot  -17.1407 0.00363626 2.35485
RightToes  0.000481921 0.542163 -0.142578
Spine  34.3242 -2.48445 5.95016
Spine1  -6.46058 -2.11681 5.04067
HEad  -19.7799 0.950483 -0.280538
LeftShoulder1  7.9625 -13.899 -39.5317
LeftArm  12.4237 -3.8217 -43.3856
LeftForeArm  -174.765 -61.9231 -162.909
LeftHand  -0.25398 0.0180481 5.50724
RightShoulder  4.50792 9.29033 29.2575
RightArm  1.95172 -0.085691 40.9373
RightForeArm  163.311 62.1171 160.677
RightHand  -1.45512 3.70381 -18.7413
LeftUpLeg  -39.7216 20.7774 2.51452
LeftLeg  58.5668 -1.89836 -2.77004
LeftFoot  0.551917 1.28382 -12.3973
LeftToes  1.06245e-005 4.65868e-005 -8.65517e-006
1600
root  10.1365 36.7247 8.39621 -174.988 80.0929 -177.873
RightUpLeg  -30.2657 -9.68281 -1.22435
RightLeg  48.4824 -6.30961 -7.93672
RightFoot  -17.489 0.0487874 3.11614
RightToes  0.000481921 0.542163 -0.142578
Spine  34.8193 -2.15815 5.85811
Spine1  -6.27052 -1.78506 5.25207
HEad  -20.3196 0.801175 0.494467
LeftShoulder1  8.00487 -13.9048 -39.7483
LeftArm  13.2044 -3.18842 -43.7345
LeftForeArm  -174.298 -61.839 -163.009
LeftHand  -0.25398 0.0180481 5.50724
RightShoulder  4.52207 9.31281 29.3068
RightArm  2.05072 0.609652 40.8915
RightForeArm  163.23 62.3621 160.479
RightHand  -1.43976 3.64276 -18.669
LeftUpLeg  -40.3512 18.9861 5.58582
LeftLeg  59.8953 -2.54906 -4.17312
LeftFoot  -0.424956 1.26647 -13.1644
LeftToes  1.06245e-005 4.65868e-005 -8.65517e-006
1601
root  10.1529 36.657 8.12585 -176.024 80.218 -178.715
RightUpLeg  -30.2225 -8.53482 -2.0673
RightLeg  49.1746 -6.72416 -8.6253
RightFoot  -17.4783 0.118214 4.41532
RightToes  0.000481921 0.542163 -0.142578
Spine  35.4758 -2.14003 5.35826
Spine1  -6.29957 -1.79021 5.2519
HEad  -20.8494 0.717397 0.617801
LeftShoulder1  8.03225 -13.8897 -39.9352
LeftArm  13.3388 -2.87335 -43.475
LeftForeArm  -174.103 -61.7751 -163.071
LeftHand  -0.25398 0.0180481 5.50724
RightShoulder  4.57453 9.42119 29.419
RightArm  2.42392 1.10163 41.3481
RightForeArm  163.367 62.3929 160.469
RightHand  -1.43256 3.61729 -18.6286
LeftUpLeg  -39.7902 16.0423 8.52602
LeftLeg  58.3758 -0.993488 -1.24654
LeftFoot  -3.13785 0.8411 -11.3625
LeftToes  1.06245e-005 4.65868e-005 -8.65517e-006
1602
root  10.1759 36.6185 7.79401 -176.53 79.947 -179.161
RightUpLeg  -30.1212 -8.19971 -2.71585
RightLeg  49.4851 -6.93513 -8.97547
RightFoot  -17.3952 0.139715 4.8691
RightToes  0.000481921 0.542163 -0.142578
Spine  35.8849 -2.23857 4.96726
Spine1  -6.3711 -1.99443 5.54817
HEad  -21.3582 0.580776 0.591135
LeftShoulder1  8.05479 -13.9298 -39.9572
LeftArm  12.8643 -3.15551 -43.1698
LeftForeArm  -173.986 -61.9259 -162.977
LeftHand  -0.25398 0.0180481 5.50724
RightShoulder  4.62003 9.51696 29.5098
RightArm  2.8228 1.27979 41.8755
RightForeArm  163.519 62.2797 160.572
RightHand  -1.44954 3.70813 -18.6637
LeftUpLeg  -38.8369 12.5802 11.2218
LeftLeg  54.7879 1.79892 3.21233
LeftFoot  -5.14783 0.460252 -7.98471
LeftToes  1.06245e-005 4.65868e-005 -8.65517e-006
1603
root  10.2142 36.5514 7.37712 -175.144 79.9185 -177.712
RightUpLeg  -30.0235 -8.00448 -3.18578
RightLeg  49.7325 -6.92287 -9.03849
RightFoot  -17.3603 0.14219 4.94013
RightToes  0.000481921 0.542163 -0.142578
Spine  35.993 -2.23581 4.92202
Spine1  -6.33032 -2.04942 5.87454
HEad  -21.7703 0.494196 0.765777
LeftShoulder1  8.03786 -13.9632 -39.7813
LeftArm  11.9161 -3.98219 -43.053
LeftForeArm  -173.885 -62.1571 -162.825
LeftHand  -0.25398 0.0180481 5.50724
RightShoulder  4.66435 9.59743 29.6323
RightArm  3.10829 1.24776 42.1903
RightForeArm  163.662 62.2386 160.618
RightHand  -1.45051 3.77044 -18.5547
LeftUpLeg  -37.2571 9.5404 13.8348
LeftLeg  49.756 3.98298 5.49829
LeftFoot  -5.45771 0.31527 -5.52998
LeftToes  1.06245e-005 4.65868e-005 -8.65517e-006
1604
root  10.2765 36.4614 6.84891 -172.013 80.5232 -174.442
RightUpLeg  -29.8833 -7.70276 -3.67889
RightLeg  49.9156 -6.51733 -8.59553
RightFoot  -17.2846 0.173034 5.58927
RightToes  0.000481921 0.542163 -0.142578
Spine  35.9573 -2.13369 5.08819
Spine1  -6.29046 -1.86009 5.80261
HEad  -21.8856 0.651375 1.0372
LeftShoulder1  7.97105 -13.8989 -39.5785
LeftArm  10.6087 -4.85865 -42.9337
LeftForeArm  -173.965 -62.2064 -162.783
LeftHand  -0.25398 0.0180481 5.50724
RightShoulder  4.72648 9.70492 29.8161
RightArm  3.41159 1.21007 42.2706
RightForeArm  163.893 62.3865 160.525
RightHand  -1.38904 3.58518 -18.1401
LeftUpLeg  -34.8038 7.63906 16.1168
LeftLeg  44.2635 4.48493 5.08725
LeftFoot  -4.8607 0.405119 -6.59354
LeftToes  1.06245e-005 4.65868e-005 -8.65517e-006
